<svg t="1756359588896" class="icon" viewBox="0 0 1024 1024" version="1.1" xmlns="http://www.w3.org/2000/svg" p-id="22209" width="200" height="200"><path d="M736 211.7v580.7L569.3 709c-17.7-8.8-37.5-13.5-57.3-13.5-19.8 0-39.6 4.7-57.2 13.5L288 792.4V211.7h448m0-96H288c-53 0-96 43-96 96v632.4c0 37.1 30.4 64.1 64 64.1 9.5 0 19.2-2.2 28.6-6.8l213.1-106.5c4.5-2.3 9.4-3.4 14.3-3.4s9.8 1.1 14.3 3.4l213.1 106.5c9.4 4.7 19.1 6.8 28.6 6.8 33.6 0 64-27 64-64.1V211.7c0-53-43-96-96-96z" fill="#131414" p-id="22210"></path><path d="M512 634.2c-21.2 0-38.4-17.2-38.4-38.4v-256c0-21.2 17.2-38.4 38.4-38.4s38.4 17.2 38.4 38.4v256c0 21.2-17.2 38.4-38.4 38.4z" fill="#131414" p-id="22211"></path><path d="M640 506.2H384c-21.2 0-38.4-17.2-38.4-38.4s17.2-38.4 38.4-38.4h256c21.2 0 38.4 17.2 38.4 38.4s-17.2 38.4-38.4 38.4z" fill="#131414" p-id="22212"></path></svg>
