<svg t="1756359468977" class="icon" viewBox="0 0 1024 1024" version="1.1" xmlns="http://www.w3.org/2000/svg" p-id="16898" width="200" height="200"><path d="M790.220692 1024H232.641973c-60.619981 0-118.794691-21.893708-161.501639-60.790581C27.637252 923.857611 2.217804 871.085245 0 815.526406V208.35986C2.615872 93.77331 105.487866 1.649136 232.641973 0h557.578719c131.021047 2.274671 235.257844 99.516855 233.153773 217.458544v588.912312c2.160937 117.998556-102.075859 215.41134-233.153773 217.629144z m-521.923252-225.306159a41.512745 41.512745 0 0 0-35.029933 18.254235 33.380796 33.380796 0 0 0 0 36.451602 41.512745 41.512745 0 0 0 35.029933 18.254234h487.632587c14.501027 0 27.864719-6.937746 35.0868-18.254234a33.380796 33.380796 0 0 0 0-36.451602 41.399011 41.399011 0 0 0-35.0868-18.254235H268.354307z m0-145.635808a41.683345 41.683345 0 0 0-36.281002 17.7993 33.551397 33.551397 0 0 0 0 37.247737 41.797079 41.797079 0 0 0 36.281002 17.799301h487.632587a41.853946 41.853946 0 0 0 36.337869-17.799301 33.551397 33.551397 0 0 0 0-37.247737 41.740212 41.740212 0 0 0-36.337869-17.7993H268.354307z m182.826678-282.741601v188.399623c0.113734 9.098684 8.302549 16.434498 18.367968 16.434498h85.300161c10.008552 0 18.197368-7.392681 18.197368-16.434498V371.965569l123.4009 42.024546a18.766035 18.766035 0 0 0 23.031043-8.245682 14.614761 14.614761 0 0 0-2.047204-17.003166L524.084189 160.136836a19.107236 19.107236 0 0 0-14.671627-6.539679 18.595435 18.595435 0 0 0-14.671628 6.710279L306.113845 388.684401a14.614761 14.614761 0 0 0-1.706004 16.946298 18.595435 18.595435 0 0 0 16.150164 9.269284 21.040706 21.040706 0 0 0 6.824013-1.194202l123.7421-43.389349z" fill="#666666" p-id="16899"></path></svg>
