<svg t="1756359011749" class="icon" viewBox="0 0 1024 1024" version="1.1" xmlns="http://www.w3.org/2000/svg" p-id="7156" width="200" height="200"><path d="M504.550301 16.460488c-277.821762 0-502.96855 225.206249-502.96855 502.970566 0 277.761294 225.14578 502.96855 502.96855 502.96855 277.823778 0 502.970566-225.207257 502.970566-502.96855C1007.521875 241.667745 782.374079 16.460488 504.550301 16.460488zM256.444694 896.596243l-53.415711 0L203.028983 460.919878l-75.7638 0 0-51.880823 75.7638 0L203.028983 205.811031l53.415711 0 0 203.228025 67.415138 0 0 51.880823-67.415138 0L256.444694 896.596243zM382.801341 473.751259l46.538446 17.743425c-23.084794 62.565578-49.978086 129.365954-80.552892 200.402138-14.304792-8.042288-29.839107-15.350894-46.477977-21.981247C332.392922 610.175884 359.222722 544.849927 382.801341 473.751259zM689.051283 785.711427c-2.702935 65.389449-34.934572 98.114911-96.516532 98.114911-15.225927 0-40.768759-0.489794-76.378561-1.411936-3.192728-21.796819-7.120146-42.426599-11.78931-61.828872 30.08602 4.235807 56.486495 6.32398 79.204448 6.32398 33.27774 0.489794 50.897205-17.743425 52.739473-54.703686 5.588282-113.218894 9.946033-236.199392 13.201245-368.816527L534.205988 403.389297c-2.514475 105.847804-10.621263 189.717383-24.313309 251.546255-23.575596 93.814605-72.203222 173.448378-145.817373 238.776351-11.602866-13.262721-24.987531-27.20168-40.215474-41.874322 66.186623-59.739691 110.393007-130.284065 132.617135-211.822591 14.306808-55.380932 22.534533-134.338467 24.621698-236.625694L362.049617 403.389297l0-55.4414 120.459977 0c1.59838-48.320246 2.396562-95.902778 2.396562-142.812096l54.212885 0c-0.490801 44.022963-1.53388 91.665964-3.193736 142.812096l169.091635 0C700.411267 522.744719 695.067882 668.686052 689.051283 785.711427zM768.256738 677.712966c-19.464757-70.607866-39.173403-133.848674-59.065469-189.719399l46.539454-14.980022c23.148286 66.370044 44.205376 128.629249 63.2398 186.957004L768.256738 677.712966z" fill="#898989" p-id="7157"></path></svg>
