<svg t="1744251730657" class="icon" viewBox="0 0 1024 1024" version="1.1" xmlns="http://www.w3.org/2000/svg" p-id="3478" width="200" height="200"><path d="M832 405.333333c0 176.725333-143.274667 320-320 320-176.725333 0-320-143.274667-320-320 0-176.725333 143.274667-320 320-320 176.725333 0 320 143.274667 320 320z m-85.333333 0q0-44.757333-16.469334-86.378666-17.898667-45.184-52.266666-79.573334-34.346667-34.346667-79.552-52.245333Q556.778667 170.666667 512 170.666667q-44.757333 0-86.378667 16.469333-45.184 17.898667-79.573333 52.266667-34.346667 34.346667-52.245333 79.552Q277.333333 360.554667 277.333333 405.333333q0 44.757333 16.469334 86.378667 17.898667 45.184 52.266666 79.573333 34.346667 34.346667 79.552 52.245334Q467.221333 640 512 640q44.757333 0 86.378667-16.469333 45.184-17.898667 79.573333-52.266667 34.346667-34.346667 52.245333-79.552Q746.666667 450.112 746.666667 405.333333z" p-id="3479" fill="#515151"></path><path d="M661.333333 405.333333a149.333333 149.333333 0 1 1-298.666666 0 149.333333 149.333333 0 0 1 298.666666 0z m-85.333333 0q0-26.517333-18.752-45.248Q538.517333 341.333333 512 341.333333q-26.517333 0-45.248 18.752Q448 378.816 448 405.333333q0 26.517333 18.752 45.248Q485.482667 469.333333 512 469.333333q26.517333 0 45.248-18.752Q576 431.850667 576 405.333333z" p-id="3480" fill="#515151"></path><path d="M682.666667 853.333333h85.333333v85.333334h85.333333v-85.333334h85.333334v-85.333333h-85.333334v-85.333333h-85.333333v85.333333h-85.333333v85.333333z" p-id="3481" fill="#515151"></path><path d="M618.666667 733.952Q567.594667 746.666667 512 746.666667q-104.106667 0-208.213333-44.629334c-22.528-9.664-49.493333-0.469333-59.413334 21.973334L175.872 878.72A42.666667 42.666667 0 0 0 214.890667 938.666667H618.666667v-85.333334H280.426667l25.92-58.538666Q408.661333 832 512 832q55.082667 0 106.666667-10.56v-87.488z" p-id="3482" fill="#515151"></path></svg>
