<svg t="1744251799303" class="icon" viewBox="0 0 1024 1024" version="1.1" xmlns="http://www.w3.org/2000/svg" p-id="5444" width="200" height="200"><path d="M857.884444 518.826667c91.022222-43.235556 154.737778-136.533333 154.737778-245.76 0-150.186667-122.88-273.066667-273.066666-273.066667-143.36 0-259.413333 109.226667-270.791112 248.035556-36.408889-13.653333-75.093333-20.48-116.053333-20.48-188.871111 0-341.333333 152.462222-341.333333 341.333333 0 157.013333 106.951111 288.995556 252.586666 329.955555-81.92 20.48-138.808889 68.266667-138.808888 125.155556h455.111111c0-56.888889-56.888889-104.675556-138.808889-125.155556 131.982222-36.408889 232.106667-147.911111 250.311111-284.444444h254.862222c-2.275556-40.96-36.408889-75.093333-88.746667-95.573333zM352.711111 864.711111c-113.777778 0-204.8-91.022222-204.8-204.8s91.022222-204.8 204.8-204.8 204.8 91.022222 204.8 204.8-91.022222 204.8-204.8 204.8z m386.844445-386.844444c-22.755556 0-43.235556-4.551111-61.44-11.377778-18.204444-59.164444-52.337778-109.226667-97.848889-150.186667 2.275556-86.471111 72.817778-154.737778 159.288889-154.737778 88.746667 0 159.288889 70.542222 159.288888 159.288889S828.302222 477.866667 739.555556 477.866667z" fill="#515151" p-id="5445" data-spm-anchor-id="a313x.search_index.0.i5.20ab3a81s9DbEe" class="selected"></path><path d="M739.555556 341.333333m-68.266667 0a68.266667 68.266667 0 1 0 136.533333 0 68.266667 68.266667 0 1 0-136.533333 0Z" fill="#515151" p-id="5446" data-spm-anchor-id="a313x.search_index.0.i7.20ab3a81s9DbEe" class="selected"></path><path d="M352.711111 682.666667m-91.022222 0a91.022222 91.022222 0 1 0 182.044444 0 91.022222 91.022222 0 1 0-182.044444 0Z" fill="#515151" p-id="5447" data-spm-anchor-id="a313x.search_index.0.i6.20ab3a81s9DbEe" class="selected"></path></svg>
