<svg t="1749625035530" class="icon" viewBox="0 0 1024 1024" version="1.1" xmlns="http://www.w3.org/2000/svg" p-id="12821" width="128" height="128"><path d="M1022 136.4v0.7l-0.5-0.3 0.5-0.4zM968.7 170v0.6l-0.5-0.3 0.5-0.3z m0 0" p-id="12822"></path><path d="M586.7 919.7c-65.2 0.1-118.8-51.4-121.3-116.5V673.8c2.4-65.2 56-116.8 121.3-116.8h6.6c9.6 0.2 18.6 4.4 25 11.7 8.2 9.7 10 23.3 4.6 34.8-5.4 11.5-16.9 18.9-29.6 18.9h-0.3c-14.5-0.9-28.8 4-39.7 13.7-10.9 9.7-17.5 23.3-18.3 37.8v129c1.2 28.9 25 51.6 53.9 51.6h220.9l1.8-18.1c1-28 24-50.3 52.1-50.2 6.8-0.1 13.6 0.9 20.1 3l66.5 23.2V664.7l-66.2 23c-6 2.2-12.4 3.3-18.8 3.3-21.7 0-41.3-12.7-50.2-32.5-2.3-5.5-3.5-11.4-3.6-17.4v-16.9l-94.4-1.4c-17.2-1.7-30.2-16.5-29.5-33.8 0.7-17.3 14.9-31 32.2-31.3h90c36.2-1 67.1 26 70.9 62l63.2-21.9c6.2-2.1 12.6-3.2 19.1-3.2 29.7-1 54.8 21.8 56.7 51.4v184.1c0 6.3-1.2 12.6-3.6 18.5-5.5 13.4-16.1 24.1-29.5 29.5-13.6 5.7-28.8 6.2-42.8 1.4l-63.2-21.9c-1.2 16.4-8.7 31.6-20.8 42.7-13.5 12.4-31.3 19.3-49.7 19.3l-223.4 0.1z" p-id="12823"></path><path d="M272.4 907.6c-91.2-0.7-175.5-48.7-222.6-126.8C9.7 716.8-4.9 640.2 8.9 566c12.5-73.4 52.9-139 112.9-183 36.4-26.8 79.3-43.4 124.3-48.2 37.5-88 106.4-158.9 193.3-198.8 91.2-41.9 196-42.6 287.8-1.9C872 200.6 963.7 346.6 960.8 506c0.7 17.6-9.8 33.8-26.1 40.4-16.3 6.6-35.1 2.2-46.8-10.9-7.4-8.2-11.3-19.1-10.6-30.2C879.4 381 807.9 267.1 695 215.2c-71-31.3-152-30.7-222.5 1.7-57.3 26.3-104.7 70.1-135.6 125 65.8 17.8 122.4 60.1 158 118.3 12.6 19.9 7.8 46.2-10.9 60.4-7 5-15.4 7.7-24 7.9-14.3-0.1-27.5-7.6-34.9-19.8-26.2-42.7-68.7-72.8-117.6-83.5-48.2-10.1-98.5 0.9-138.1 30.2-41.6 30.5-69.7 76.1-78.3 127-9.7 51.7 0.4 105.1 28.4 149.6 32.3 53.8 90.3 86.8 153 87.3h91.4c23.5 1 42.2 20.3 42.3 43.8 0.2 23.6-18.2 43.1-41.7 44.4h-92.1v0.1z" p-id="12824"></path></svg>