<svg t="1749624384456" class="icon" viewBox="0 0 1485 1024" version="1.1" xmlns="http://www.w3.org/2000/svg" p-id="7049" width="128" height="128"><path d="M214.399 686.4h-108.8V548.8l-105.6-19.2v441.6l105.6-35.2V782.4h169.6l92.8-124.8-121.6-64z m550.4 28.8l246.4-156.8-768-505.6h-89.6l-121.6 192v64l675.2 409.6h57.6z m-92.8 32l-582.4-377.6-60.8 64 675.2 409.6h60.8l32-32 32-92.8s-89.6 64-92.8 64c-35.2-22.4-64-35.2-64-35.2z" fill="#2C2C2C" p-id="7050"></path><path d="M1150.382 0.213c-65.916-2.506-140.333 17.124-207.355 59.52-134.046 85.102-189.414 230.23-122.883 321.808 63.58 88.803 215.403 98.727 345.186 25.345v-18.804C1055.54 445.435 930.323 434.68 875.589 359.139c-58.34-81.397-11.754-206.561 103.938-279.946 115.69-73.379 256.957-66.993 315.291 14.716 25.236 34.53 28.491 75.935 19.64 122.804-11.468 50.256-37.335 92.143-85.514 128.527 5.57 1.233 11.112 1.832 16.686 2.453 5.9 1.228 12.027 1.308 18.25 1.308 5.575 0 10.9-0.04 15.817-0.653H1282.304c0.653 0 0.559-0.04 1.216-0.653h4.345c0.66 0 0.734-0.653 1.391-0.653h1.217c51.458-8.943 93.764-43.984 109.5-89.613L1485.14 7.571h-99.593l-50.405 147.985c-1.316-29.596-10.305-57.276-28.33-82.25-33.102-45.941-90.514-70.588-156.43-73.093z m-31.286 93.042c-18.02 0-33.713 1.91-50.752 3.761h-2.086c-32.116 5.24-57.956 18.746-79.257 36.629-9.504 8.941-20.044 20.063-29.548 35.484l94.379 9.647c5.575-7.708 10.941-12.982 16.512-16.679 1.965-1.238 4.292-2.545 6.257-4.088 10.81-5.55 25.208-8.919 39.629-7.685 7.533 1.539 17.7 4.04 25.898 8.666 1.307 7.712-0.058 16.09-3.998 22.566-13.105 4.315-25.262 7.672-37.717 10.138-6.228 1.232-16.301 3.763-30.069 6.541-12.126 2.467-28.597 4.79-47.276 8.176-33.427 5.858-57.306 14.922-73.696 26.327-15.732 12.332-27.472 25.296-33.371 45.949-5.57 19.738-0.772 35.776 9.386 48.729C934.859 340.674 949.273 349 986.306 349c22.612 0.62 45.997-3.7 65.005-10.792 5.569-2.159 10.807-4.767 17.033-7.849 8.85-4.317 18.615-9.422 27.462-16.515-1.636 4.006-2.26 7.114-2.26 11.12 0 6.163 1.586 11.602 4.867 16.842v0.653H1194.703c-1.962-3.697-2.606-8.292-2.606-12.919 0-2.157 0.08-5.24 1.39-8.012 24.579-72.456 38.944-113.76 47.798-139.972h-0.695c1.964-6.474 3.302-12.366 3.302-19.459 0-33.612-26.403-60.415-60.486-64.427-16.388-2.468-39.727-4.415-64.31-4.415z m2.608 134.577l-4.867 14.717c-3.93 10.795-9.63 20.69-16.512 27.471-6.224 7.092-14.43 13.562-25.898 18.805-1.964 1.228-4.118 1.835-6.083 2.453-8.85 3.388-18.443 4.62-27.288 5.233-11.15 0-16.983-1.172-21.9-7.032-4.264-4.62-6.212-11.694-2.607-18.478 1.964-6.48 7.527-12.38 14.078-17.006 6.884-3.695 19.365-8.437 37.717-12.754 1.965-0.93 4.16-1.51 6.779-2.126 15.73-3.085 31.508-6.968 46.58-11.283z" p-id="7051"></path></svg>