<svg t="1749624648505" class="icon" viewBox="0 0 1024 1024" version="1.1" xmlns="http://www.w3.org/2000/svg" p-id="10830" width="128" height="128"><path d="M509.76 0l70.848 77.056a115.2 115.2 0 0 0 9.472 7.424c9.6 7.04 21.44 14.08 35.52 20.736 42.752 20.288 97.92 33.28 165.952 33.28 6.656 0 12.8-0.128 18.688-0.32l101.504-3.456v451.84c0 77.184-16.768 145.024-65.92 214.144-28.736 40.256-67.2 77.248-114.112 110.208-51.072 35.84-113.92 68.032-186.752 96l-35.328 13.504-17.792-6.848-17.472-6.656c-72.96-27.968-135.68-60.16-186.752-96-46.976-32.96-85.376-69.952-114.048-110.208-49.28-69.12-65.92-136.96-65.92-214.144V134.72l51.328 1.792 50.048 1.664c74.88 2.56 135.04-9.92 181.12-30.976 13.504-6.016 26.368-13.44 38.4-21.952 5.12-3.776 8.448-6.528 9.856-7.808L509.76 0z m-0.128 94.464V943.36l12.352 3.84c67.456-25.92 125.696-55.488 172.928-88.64 40.576-28.48 73.984-60.16 98.752-94.976 37.248-52.416 51.648-103.936 53.76-161.28l0.32-15.744V200.768l-55.168 1.728-21.44-0.384c-70.08-2.432-127.424-17.472-172.928-39.04a281.088 281.088 0 0 1-51.392-31.36l-9.472-7.232-27.712-30.08zM325.12 340.032c-45.248 0-81.088 15.36-107.52 46.976-25.216 29.44-37.568 66.944-37.568 112.64 0 45.184 12.352 82.304 37.568 110.912 26.88 30.72 64.384 46.08 113.024 46.08a248.96 248.96 0 0 0 73.856-10.24c20.864-6.848 39.232-16.192 55.424-28.992V488.512h-130.56V531.2h80.64v62.72c-10.24 5.952-20.864 10.688-32.832 14.08-12.8 3.392-26.432 5.12-40.96 5.12-37.12 0-64.448-10.24-81.92-30.72-16.192-19.2-24.32-46.912-24.32-82.752 0-37.568 8.96-66.176 27.328-86.656C273.92 393.408 296.512 384 325.12 384c23.04 0 41.792 4.672 55.872 14.528 13.632 9.792 23.04 24.32 27.328 43.904h50.304c-5.504-34.112-19.2-59.264-40.96-76.352-22.592-17.472-53.312-26.048-92.544-26.048z m369.088 6.016c30.272 0 54.144 7.232 71.232 21.76 15.808 13.632 23.872 32 23.872 55.04 0 17.024-4.224 31.552-12.352 43.52-8.128 11.072-19.648 19.2-35.008 25.152 20.096 3.84 35.008 11.968 45.248 24.32 9.792 11.968 14.912 28.608 14.912 49.088 0 30.72-10.624 53.312-31.552 67.84-15.936 10.624-37.952 16.512-65.408 17.664l-10.56 0.256H554.688v-304.64h139.52z m-5.568 168.96h-84.032v94.72h82.752c18.752 0 33.728-3.008 44.352-8.96 13.696-7.68 20.48-19.648 20.48-36.736 0-17.472-5.12-29.824-14.912-37.504-8.96-6.72-22.464-10.496-40.576-11.392l-8.064-0.128z m-6.848-128h-77.184v87.04h76.352c21.312 0 36.288-3.84 45.248-10.688 8.512-7.232 13.184-18.752 13.184-34.56 0-14.528-4.672-25.152-13.184-31.552-8.256-6.016-20.352-9.344-36.992-10.112l-7.424-0.128z" p-id="10831"></path></svg>