<?xml version="1.0" encoding="UTF-8"?>
<svg version="1.1" xmlns="http://www.w3.org/2000/svg" width="151" height="111">
<path d="M0 0 C6.1015136 3.6547657 10.43215776 9.59135468 12.328125 16.39453125 C13.14134722 24.32344793 13.00032945 30.81161377 8.328125 37.39453125 C0.87162765 46.39688781 -7.61899609 54.56133809 -15.86499023 62.82788086 C-18.23949627 65.21217363 -20.60311201 67.60693849 -22.96679688 70.00195312 C-24.49413221 71.53581318 -26.02210515 73.06903867 -27.55078125 74.6015625 C-28.24683975 75.3099678 -28.94289825 76.01837311 -29.66004944 76.74824524 C-36.76538335 83.82180346 -43.08132036 88.41912964 -53.296875 88.76953125 C-60.58736946 88.68951363 -65.97494388 86.54434783 -71.51953125 81.8203125 C-76.37853087 76.69866425 -78.71188026 70.41546273 -79.046875 63.39453125 C-78.66004708 56.14508945 -76.53974847 51.0289209 -71.59985352 45.67724609 C-70.79315216 44.80235535 -69.98645081 43.9274646 -69.15530396 43.02606201 C-65.40451343 39.05158928 -61.60719934 35.128968 -57.76171875 31.24609375 C-56.94997696 30.42628021 -56.13823517 29.60646667 -55.30189514 28.7618103 C-53.60172465 27.04793379 -51.90008523 25.33551327 -50.19702148 23.62451172 C-48.46565796 21.88155023 -46.73879101 20.13411102 -45.01635742 18.38232422 C-42.50373997 15.82703113 -39.97812472 13.28525563 -37.44921875 10.74609375 C-36.68753891 9.96690582 -35.92585907 9.1877179 -35.14109802 8.38491821 C-25.12480952 -1.59129106 -13.49037698 -6.00279353 0 0 Z " fill="#09B3D5" transform="translate(127.671875,12.60546875)"/>
<path d="M0 0 C5.58455335 3.9519923 9.24852136 8.96656025 11.19140625 15.55078125 C12.26296774 23.95658585 11.12125111 30.58442618 6.19140625 37.55078125 C1.64689341 42.65661159 -3.68681102 46.02534153 -10.56640625 46.90234375 C-18.87185592 47.30593338 -25.37896007 45.49343618 -31.65625 39.90625 C-37.57551442 33.46341428 -39.3549457 27.06145987 -39.0859375 18.41015625 C-38.34824303 10.80463017 -34.09205999 5.71761468 -28.80859375 0.55078125 C-20.2628777 -5.61008381 -8.94024686 -5.09436218 0 0 Z " fill="#09BFD0" transform="translate(48.80859375,13.44921875)"/>
</svg>
