<svg t="1749624512909" class="icon" viewBox="0 0 1024 1024" version="1.1" xmlns="http://www.w3.org/2000/svg" p-id="8071" width="128" height="128"><path d="M533.333333 657.066667L55.466667 484.266667c-12.8 32 4.266667 70.4 38.4 81.066666L298.666667 640l-14.933334 42.666667c-4.266667 12.8-14.933333 21.333333-29.866666 21.333333H106.666667v-53.333333c0-17.066667-14.933333-32-32-32S42.666667 633.6 42.666667 650.666667v170.666666c0 17.066667 14.933333 32 32 32S106.666667 838.4 106.666667 821.333333V768h151.466666c36.266667 0 70.4-23.466667 81.066667-57.6l17.066667-49.066667 185.6 68.266667c-6.4-21.333333-8.533333-44.8-8.533334-68.266667v-4.266666zM136.533333 473.6l401.066667 142.933333c21.333333-119.466667 125.866667-211.2 251.733333-211.2h17.066667c12.8-21.333333 2.133333-53.333333-25.6-61.866666L253.866667 153.6c-44.8-17.066667-93.866667 6.4-110.933334 51.2L85.333333 364.8c-17.066667 44.8 6.4 93.866667 51.2 108.8z" p-id="8072"></path><path d="M789.333333 469.333333c-106.666667 0-192 85.333333-192 192s85.333333 192 192 192 192-85.333333 192-192-85.333333-192-192-192z m-46.933333 230.4c-2.133333 6.4-4.266667 8.533333-10.666667 8.533334h-23.466666c6.4-17.066667 12.8-32 17.066666-49.066667h-36.266666c0 2.133333-2.133333 2.133333-2.133334 4.266667-4.266667 14.933333-10.666667 27.733333-14.933333 42.666666-2.133333 2.133333-2.133333 4.266667-4.266667 4.266667h-25.6v-2.133333c12.8-32 23.466667-66.133333 36.266667-100.266667v-2.133333h29.866667c-4.266667 12.8-10.666667 25.6-14.933334 38.4h34.133334c2.133333 0 2.133333 0 4.266666-2.133334l12.8-32c0-2.133333 2.133333-2.133333 2.133334-4.266666h29.866666v4.266666c-8.533333 25.6-19.2 51.2-27.733333 74.666667l-6.4 14.933333z m17.066667 6.4l38.4-102.4h29.866666c0 2.133333-34.133333 98.133333-38.4 102.4h-29.866666z m172.8-96l-6.4 4.266667c-2.133333 2.133333-4.266667 2.133333-6.4 4.266667-2.133333 2.133333-4.266667 4.266667-6.4 4.266666l-6.4 4.266667c-2.133333 2.133333-4.266667 4.266667-6.4 4.266667l-4.266667 8.533333c-2.133333 2.133333-4.266667 4.266667-6.4 4.266667 0 2.133333 0 2.133333 2.133333 2.133333 10.666667 19.2 19.2 36.266667 27.733334 55.466667 0 2.133333 2.133333 2.133333 2.133333 4.266666H896c-4.266667 0-8.533333-2.133333-10.666667-6.4-4.266667-6.4-6.4-12.8-10.666666-21.333333-2.133333-4.266667-4.266667-10.666667-8.533334-14.933333 0 0 0-2.133333-2.133333-2.133334-4.266667 2.133333-8.533333 4.266667-8.533333 10.666667-4.266667 10.666667-8.533333 21.333333-10.666667 32 0 2.133333 0 2.133333-2.133333 4.266667h-29.866667l38.4-102.4h32c-4.266667 12.8-8.533333 25.6-12.8 36.266666l2.133333-2.133333c14.933333-10.666667 29.866667-21.333333 42.666667-34.133333 2.133333-2.133333 4.266667-2.133333 6.4-2.133334h17.066667c-2.133333 4.266667-4.266667 4.266667-6.4 6.4z" p-id="8073"></path></svg>