<svg t="1749626041875" class="icon" viewBox="0 0 1024 1024" version="1.1" xmlns="http://www.w3.org/2000/svg" p-id="33249" width="128" height="128"><path d="M210.038202 911.264403l0-49.522903 184.440709 0 0-76.676333c0-8.569166 6.971785-15.541975 15.539928-15.541975l258.2129 0c8.571213 0 15.545044 6.971785 15.545044 15.541975l0 76.676333 184.417173 0 0 49.522903L210.038202 911.264403zM170.245917 689.952948c-28.9084 0-52.426023-23.518646-52.426023-52.42807l0-516.421706c0-28.900214 23.518646-52.411697 52.426023-52.411697l737.75772 0c28.907377 0 52.426023 23.511483 52.426023 52.411697l0 516.421706c0 28.909423-23.518646 52.42807-52.426023 52.42807L170.245917 689.952948zM188.692035 118.182656c-11.764951 0-21.336958 9.574053-21.336958 21.342074l0 479.522308c0 11.768021 9.572006 21.341051 21.336958 21.341051l700.865485 0c11.770068 0 21.345144-9.573029 21.345144-21.341051L910.902664 139.52473c0-11.768021-9.575076-21.342074-21.345144-21.342074L188.692035 118.182656z" fill="#515151" p-id="33250"></path><path d="M540.377816 483.995179c-49.913806 0-94.634334-30.942733-123.360586-56.899918-27.149337-24.531719-45.630247-49.523927-50.033533-55.692417 3.517103-6.312776 17.811668-30.566156 42.780339-55.302537 26.115797-25.874297 69.142753-56.717769 125.812427-56.717769 56.714699 0 101.689007 30.607088 129.430838 56.282864 25.962302 24.029276 42.219567 48.550763 46.209438 54.858422-4.354168 6.335289-22.277376 31.468712-48.765657 56.096622C634.299929 452.794573 590.268086 483.995179 540.377816 483.995179zM539.127336 284.609083c-48.01762 0-87.082334 39.065737-87.082334 87.083357s39.064714 87.082334 87.082334 87.082334c48.01455 0 87.077218-39.064714 87.077218-87.082334S587.141886 284.609083 539.127336 284.609083zM539.381116 421.782256c-6.562463 0-13.239536-1.327228-19.308765-3.838422-6.063089-2.511193-11.722996-6.293333-16.368806-10.93812-4.647857-4.647857-8.43102-10.30981-10.939143-16.372899-2.124384-5.126764-3.422959-10.790764-3.755534-16.383132l-0.289596-4.860704c0.273223-5.812379 1.568728-11.646248 3.790326-17.004279 2.515287-6.073322 6.297426-11.733229 10.93812-16.369829 4.644787-4.64888 10.30367-8.429996 16.368806-10.939143 6.060019-2.51324 12.735046-3.839445 19.310811-3.839445 6.568602 0 13.244652 1.327228 19.307741 3.839445 6.058996 2.506077 11.717879 6.28924 16.368806 10.93812 4.646833 4.644787 8.426927 10.30367 10.93505 16.367783 2.12643 5.128811 3.425006 10.793834 3.756557 16.387225l0.286526 4.835122c-0.270153 5.823636-1.565658 11.665691-3.78828 17.026792-2.505054 6.062066-6.287193 11.722996-10.937097 16.375969-4.63967 4.638647-10.299577 8.42181-16.365736 10.939143C552.618605 420.454004 545.939485 421.782256 539.381116 421.782256z" fill="#515151" p-id="33251"></path></svg>