<svg t="1749625979908" class="icon" viewBox="0 0 1024 1024" version="1.1" xmlns="http://www.w3.org/2000/svg" p-id="30727" width="128" height="128"><path d="M512.448 383.936c35.264 0 64 28.736 64 64 0 35.264-28.736 64-64 64a64 64 0 1 1 0-128m0-64c-70.592 0-128 57.408-128 128s57.408 128 128 128 128-57.408 128-128-57.472-128-128-128zM832.832 320c-10.368 0-20.288-1.536-29.952-3.904 18.048 40.064 28.672 84.096 28.672 130.816 0 141.824-93.376 260.992-221.376 302.848 14.144 16.704 24.32 36.8 28.416 59.2a383.872 383.872 0 0 0 257.024-362.048c0-46.976-8.832-91.776-24.32-133.44a126.272 126.272 0 0 1-38.464 6.528zM723.264 126.72A382.08 382.08 0 0 0 511.488 62.912a381.44 381.44 0 0 0-209.728 62.592c11.84 19.264 18.944 41.664 19.072 65.92a316.864 316.864 0 0 1 190.656-64.512c73.024 0 139.584 25.536 193.472 66.88 0-0.576-0.192-1.152-0.192-1.792a127.36 127.36 0 0 1 18.496-65.28zM191.488 446.912c0-46.272 10.368-90.048 28.096-129.792A126.272 126.272 0 0 1 192.896 320a127.36 127.36 0 0 1-40.832-7.232 382.08 382.08 0 0 0-24.576 134.144 384 384 0 0 0 259.584 363.008c3.968-22.464 13.888-42.688 27.968-59.456-129.152-41.28-223.552-160.96-223.552-303.552z" fill="#515151" p-id="30728"></path><path d="M832.832 128c35.264 0 64 28.736 64 64s-28.736 64-64 64-64-28.736-64-64 28.736-64 64-64m0-64a128 128 0 1 0-0.064 255.936A128 128 0 0 0 832.832 64zM192.896 128c35.264 0 64 28.736 64 64s-28.736 64-64 64-64-28.736-64-64 28.672-64 64-64m0-64a128 128 0 1 0-0.064 255.936A128 128 0 0 0 192.896 64zM512.832 768.064c35.264 0 64 28.736 64 64s-28.736 64-64 64-64-28.736-64-64 28.736-64 64-64m0-64A128 128 0 1 0 512.768 960 128 128 0 0 0 512.832 704z" fill="#515151" p-id="30729"></path><path d="M236.096 261.12l45.248-45.184 166.912 166.912-45.248 45.248zM752.64 224.256l45.312 45.248L622.08 445.376l-45.248-45.248zM480.704 538.944h64v200.064h-64z" fill="#515151" p-id="30730"></path></svg>