<svg t="1744251664786" class="icon" viewBox="0 0 1024 1024" version="1.1" xmlns="http://www.w3.org/2000/svg" p-id="2365" width="200" height="200"><path d="M512 512m-512 0a512 512 0 1 0 1024 0 512 512 0 1 0-1024 0Z" fill="#515151" p-id="2366" data-spm-anchor-id="a313x.search_index.0.i0.20ab3a81s9DbEe" class="selected"></path><path d="M172.375963 395.241911l15.252183 2.498202a116.495121 116.495121 0 0 1 14.726245 223.523369 241.536723 241.536723 0 0 1-27.348741 6.04828l-2.629687 0.657421h-17.092964l-2.366718-0.657421a150.023626 150.023626 0 0 1-15.383667-2.498203 114.522856 114.522856 0 0 1-88.225988-90.592706c-1.183359-4.733436-1.709296-9.729841-2.498203-14.726246v-15.77812c0-4.076014 1.183359-8.020544 1.840781-12.096559a116.889574 116.889574 0 0 1 90.98716-93.748331c5.127889-1.051875 10.387262-1.709296 15.646635-2.629686z m92.696456 107.422701a88.620442 88.620442 0 1 0-89.277863 88.225989 88.357473 88.357473 0 0 0 89.277863-88.225989zM977.060092 492.671803a33.002568 33.002568 0 0 1-7.231638 13.937339 25.507961 25.507961 0 1 1 6.442732-23.798664l0.788906 1.84078z m-26.296867 18.539291a22.615306 22.615306 0 0 0 22.74679-22.352337 22.615306 22.615306 0 0 0-45.230611 0 22.483821 22.483821 0 0 0 23.009759 22.352337zM481.101181 614.426297h-39.4453v-95.589112a52.593734 52.593734 0 0 0 0-9.072419 21.168978 21.168978 0 0 0-21.8264-19.591166h-54.697483c-4.338983 0-4.338983 0-4.338983 4.338983v116.232152a8.020544 8.020544 0 0 1 0 2.498203s-1.051875 1.840781-1.577812 1.840781h-38.130457V475.052902h107.291217a92.039034 92.039034 0 0 1 22.352337 2.892655 37.867488 37.867488 0 0 1 29.978428 35.500771 159.096045 159.096045 0 0 1 0.788906 15.909604v80.731382zM601.935285 580.24037l12.228043-23.798665c13.148433-26.296867 26.296867-52.593734 40.365691-78.890601a4.338983 4.338983 0 0 1 4.86492-2.892655h15.646636a20.906009 20.906009 0 0 1-1.051874 2.366718Q639.539805 544.345146 604.82794 611.533641a4.86492 4.86492 0 0 1-5.390857 3.155625H578.531073a4.207499 4.207499 0 0 1-4.207498-2.629687L512.788906 491.882897l-8.80945-16.698511h41.417565a4.996405 4.996405 0 0 1 5.127889 3.287109c16.698511 33.002568 33.397021 65.742167 50.227016 99.139188zM898.038007 475.052902v14.594761h-45.099127a60.219825 60.219825 0 0 0-10.913199 1.051875 19.328197 19.328197 0 0 0-16.829995 16.435542c-1.183359 7.757576-1.183359 15.77812-1.709297 23.930149h68.503339v15.383667h-64.558809c-2.892655 0-3.550077 0.788906-3.550077 3.550077v64.427324h-39.4453v-3.287109-83.229583a95.589111 95.589111 0 0 1 2.498202-22.089369 36.552645 36.552645 0 0 1 30.109913-28.269132 96.115049 96.115049 0 0 1 19.328197-2.498202h60.219826zM695.026194 475.184386h39.445301v139.241911h-39.445301z" fill="#FFFFFF" p-id="2367"></path><path d="M945.372368 492.145865v11.044685h-3.550077v-29.189523a143.317925 143.317925 0 0 1 14.989214 0.920391 7.626091 7.626091 0 0 1 6.048279 7.757575 8.80945 8.80945 0 0 1-5.127889 8.414998l-2.103749 0.92039 7.231638 11.044684c-2.629687 0.657422-4.733436 0.92039-6.179763-1.972265s-2.892655-3.94453-3.944531-6.179764-3.94453-3.681561-7.363122-2.761171z m0-3.813045h8.414997a5.522342 5.522342 0 0 0 4.996405-5.390858 5.522342 5.522342 0 0 0-4.470467-5.127889 40.628659 40.628659 0 0 0-6.96867 0s-1.840781 1.051875-1.840781 1.577812c-0.262969 2.629687-0.131484 5.653826-0.131484 8.940935z" fill="#FFFFFF" p-id="2368"></path></svg>
