<svg t="1749625546111" class="icon" viewBox="0 0 1024 1024" version="1.1" xmlns="http://www.w3.org/2000/svg" p-id="18483" width="128" height="128"><path d="M619.946667 938.666667v-0.085334a66.56 66.56 0 0 1-61.952-66.304V624.298667c0-36.693333 29.866667-66.389333 66.389333-66.389334h119.552v-52.992H194.901333v52.906667h119.552c36.693333 0 66.474667 29.866667 66.474667 66.56v247.893333a66.56 66.56 0 0 1-66.474667 66.389334H66.56A66.56 66.56 0 0 1 0 872.277333V624.298667c0-36.693333 29.866667-66.389333 66.474667-66.389334h57.429333v-57.514666c0-36.693333 29.866667-66.389333 66.474667-66.389334h243.456v-52.992h-93.013334v-0.170666a66.56 66.56 0 0 1-61.866666-66.304V66.389333c0-36.693333 29.866667-66.389333 66.389333-66.389333h247.978667c36.693333 0 66.389333 29.866667 66.389333 66.389333v247.978667a66.56 66.56 0 0 1-66.389333 66.389333H504.832v52.992H748.373333c36.693333 0 66.474667 29.866667 66.474667 66.474667v57.429333h57.429333c36.693333 0 66.474667 29.866667 66.474667 66.474667v247.893333a66.56 66.56 0 0 1-66.474667 66.389334H619.946667V938.666667z m247.893333-70.826667V628.736h-238.933333v238.933333h238.933333z m-557.909333 0V628.736H70.826667v238.933333h238.933333z m279.04-557.994667v-238.933333H349.866667v238.933333h239.104z" fill="#515151" p-id="18484"></path></svg>