<svg t="1750826422330" class="icon" viewBox="0 0 1024 1024" version="1.1" xmlns="http://www.w3.org/2000/svg" p-id="9174" width="128" height="128"><path d="M852.63 220.95L660.82 412.52c40.03 60.28 40.27 138.67 0 198.72l191.57 191.57c143.44-167.26 143.44-414.12 0.24-581.86zM765.9 600.04V419.9l111.04 91.74-111.04 88.4zM362.97 412.76L171.4 221.18c-143.2 167.51-143.2 414.6 0 582.11l191.57-191.81c-40.03-60.04-40.03-138.68 0-198.72zM238.83 600.04L127.8 511.88l111.04-90.07v178.23z m173.71 61L220.96 852.61c167.74 143.2 414.6 143.2 582.1 0L611.5 661.04c-60.29 40.27-138.92 40.27-198.96 0z m98.4 207.54l-93.64-110.8h194.2l-100.56 110.8zM611.26 363.2l191.81-191.81c-167.51-143.2-414.6-143.2-582.1 0L412.53 363.2c60.05-40.03 138.68-40.03 198.73 0z m-98.89-215.4l100.79 110.8H424.21l88.16-110.8z" p-id="9175" fill="#1296db"></path></svg>