<svg t="1749625707453" class="icon" viewBox="0 0 1024 1024" version="1.1" xmlns="http://www.w3.org/2000/svg" p-id="20554" width="128" height="128"><path d="M149.333333 202.666667a10.666667 10.666667 0 0 0-10.666666 10.666666v597.333334c0 5.888 4.778667 10.666667 10.666666 10.666666h725.333334a10.666667 10.666667 0 0 0 10.666666-10.666666V213.333333a10.666667 10.666667 0 0 0-10.666666-10.666666h-725.333334zM74.666667 213.333333c0-41.258667 33.450667-74.666667 74.666666-74.666666h725.333334c41.216 0 74.666667 33.408 74.666666 74.666666v597.333334a74.666667 74.666667 0 0 1-74.666666 74.666666h-725.333334A74.666667 74.666667 0 0 1 74.666667 810.666667V213.333333z" p-id="20555" fill="#515151"></path><path d="M277.333333 138.666667a32 32 0 0 1 32 32v682.666666a32 32 0 0 1-64 0V170.666667a32 32 0 0 1 32-32zM597.333333 352a160 160 0 1 0 0 320 160 160 0 0 0 0-320zM373.333333 512a224 224 0 1 1 448 0 224 224 0 0 1-448 0z" p-id="20556" fill="#515151"></path><path d="M597.333333 576a64 64 0 1 0 0-128 64 64 0 0 0 0 128zM74.666667 341.333333a32 32 0 0 1 32-32h170.666666a32 32 0 0 1 0 64h-170.666666A32 32 0 0 1 74.666667 341.333333zM74.666667 512a32 32 0 0 1 32-32h170.666666a32 32 0 0 1 0 64h-170.666666a32 32 0 0 1-32-32zM74.666667 682.666667a32 32 0 0 1 32-32h170.666666a32 32 0 0 1 0 64h-170.666666a32 32 0 0 1-32-32z" p-id="20557" fill="#515151"></path></svg>