<svg t="1745287792403" class="icon" viewBox="0 0 1024 1024" version="1.1" xmlns="http://www.w3.org/2000/svg" p-id="2375" width="200" height="200"><path d="M799.232 128l-0.128 3.968A128 128 0 0 1 895.232 256v153.6c59.968 16.832 99.648 61.248 99.648 133.76 0 70.144-40.896 118.208-99.648 136.896V896a128 128 0 0 1-128 128h-512a128 128 0 0 1-128-128l-0.064-128H93.12a64 64 0 0 1-63.552-56.512L29.12 704V465.92a64 64 0 0 1 56.512-63.552l7.488-0.448h34.048V256a128 128 0 0 1 96.192-124.032c1.92 48.192 39.36 87.168 86.848 91.584l8.96 0.448h384l9.28-0.448A96 96 0 0 0 799.232 128zM614.72 461.44c-50.56 0-86.4 32-86.4 72 0 34.56 23.36 55.36 48.32 65.28l30.4 12.8c20.48 8.64 33.6 13.12 33.6 26.88 0 12.8-9.92 20.8-31.04 20.8-18.88 0-40.96-9.92-57.92-24.32l-32.32 39.36c24.64 22.72 57.92 34.24 88.96 34.24 57.6 0 90.88-34.88 90.88-74.56 0-33.6-17.6-53.44-47.04-65.28L622.4 556.8c-21.12-8.32-36.16-13.44-36.16-26.56 0-12.8 10.88-19.84 28.48-19.84 18.56 0 33.28 6.4 48.96 18.24l28.48-35.84a110.784 110.784 0 0 0-77.44-31.36z m-434.24 4.48H93.12V704h57.28v-83.84h27.52L221.76 704h64l-53.12-94.4c24.64-11.52 40.96-33.92 40.96-68.8 0-57.6-42.24-74.88-93.12-74.88z m312.96 0H307.2v47.36h64.32V704h57.28V513.28h64.64v-47.36z m341.76 0h-83.52V704h57.28v-79.04h27.84c50.24 0 94.08-24.96 94.08-81.6 0-58.88-43.2-77.44-95.68-77.44z m-2.88 45.12c27.52 0 42.88 8.32 42.88 32.32 0 23.36-13.44 36.48-41.28 36.48h-24.96v-68.8h23.36z m-656.32 0c27.2 0 41.6 7.36 41.6 29.76 0 22.4-14.4 34.24-41.6 34.24h-25.6v-64H176zM703.232 96a32 32 0 0 1 5.76 63.488l-5.76 0.512h-384a32 32 0 0 1-5.76-63.488l5.76-0.512h384z" p-id="2376" fill="#707070"></path></svg>
