<svg t="1744679013899" class="icon" viewBox="0 0 1024 1024" version="1.1" xmlns="http://www.w3.org/2000/svg" p-id="2703" width="200" height="200"><path d="M894.44 118.63H129.56C93.35 118.63 64 147.99 64 184.2v677.47c0 24.14 19.57 43.71 43.71 43.71H916.3c24.14 0 43.71-19.57 43.71-43.71V184.2c-0.01-36.21-29.36-65.57-65.57-65.57zM391.8 512V227.9h240.39V512H391.8z m240.39 43.71v284.1H391.8v-284.1h240.39zM107.71 227.9h240.38V512H107.71V227.9z m0 327.81h240.38v284.1H107.71v-284.1zM916.29 839.8H675.9V555.7h240.4v284.1z m0-327.8H675.9V227.9h240.4V512z" p-id="2704"></path></svg>
