<svg t="1749625439799" class="icon" viewBox="0 0 1024 1024" version="1.1" xmlns="http://www.w3.org/2000/svg" p-id="16540" width="128" height="128"><path d="M66.782609 352.745739c0-65.090783 56.230957-117.893565 125.551304-117.893565h365.345391c69.320348 0 125.551304 52.802783 125.551305 117.893565v342.995478c0 65.090783-56.230957 117.893565-125.551305 117.893566H192.333913C123.013565 813.634783 66.782609 760.832 66.782609 695.741217V352.745739zM192.333913 299.186087c-31.521391 0-57.07687 24.041739-57.07687 53.604174v342.995478c0 29.562435 25.555478 53.604174 57.121392 53.604174h365.300869c31.521391 0 57.07687-24.041739 57.07687-53.604174V352.745739c0-29.606957-25.555478-53.604174-57.07687-53.604174H192.333913z" fill="#515151" p-id="16541"></path><path d="M940.432696 325.097739c10.418087 5.787826 16.784696 16.294957 16.784695 27.648v342.995478c0 11.353043-6.366609 21.815652-16.784695 27.603479a36.196174 36.196174 0 0 1-33.836522 0.623304l-251.191652-128.667826a31.922087 31.922087 0 0 1-17.808696-28.182261v-85.74887c0-11.753739 6.811826-22.572522 17.808696-28.226782l251.14713-128.623304a36.196174 36.196174 0 0 1 33.881044 0.578782z m-234.362435 175.371131v47.549217l182.672696 93.540174V406.928696l-182.672696 93.495652zM548.864 504.965565c10.24 10.640696 10.24 27.91513 0 38.555826l-123.102609 128.534261a25.377391 25.377391 0 0 1-36.953043 0 28.137739 28.137739 0 0 1 0-38.555826l78.536348-82.009043h-240.862609A26.713043 26.713043 0 0 1 200.347826 524.243478a26.713043 26.713043 0 0 1 26.134261-27.291826h240.862609L388.808348 414.98713a28.137739 28.137739 0 0 1 0-38.600347c10.24-10.640696 26.713043-10.640696 36.953043 0l123.102609 128.578782z" fill="#515151" p-id="16542"></path></svg>