<svg t="1749625824801" class="icon" viewBox="0 0 1024 1024" version="1.1" xmlns="http://www.w3.org/2000/svg" p-id="28744" width="128" height="128"><path d="M445.8 846.5L182.5 653.9l-100.2 2.5c-10 0.2-17.7-7.4-17.9-17-0.2-9.7 7.4-17.7 17-17.9l112.1-2.8 263.6 192.8 400.8-3.3h0.1c9.6 0 17.4 7.7 17.5 17.3 0.1 9.7-7.7 17.6-17.3 17.6l-412.4 3.4z" fill="#515151" p-id="28745"></path><path d="M872.5 828m-53.5 0a53.5 53.5 0 1 0 107 0 53.5 53.5 0 1 0-107 0Z" fill="#515151" p-id="28746"></path><path d="M644.4 677.3m-53.5 0a53.5 53.5 0 1 0 107 0 53.5 53.5 0 1 0-107 0Z" fill="#515151" p-id="28747"></path><path d="M194.3 569.5l-111.4-2.8c-6.4-0.2-11.5-5.5-11.4-12 0.2-6.4 4.9-11.5 12-11.4l100.9 2.5L423.5 288l405.6 1.8c6.4 0 11.6 5.3 11.6 11.7 0 6.4-5.2 11.6-11.7 11.6h-0.1l-395.4-1.8-239.2 258.2z" fill="#515151" p-id="28748"></path><path d="M872.5 352.6c-28.8 0-52.3-23.4-52.3-52.2s23.4-52.3 52.3-52.3c28.8 0 52.3 23.4 52.3 52.3s-23.5 52.2-52.3 52.2z m0-81.1c-16 0-28.9 13-28.9 28.9 0 16 13 28.9 28.9 28.9 16 0 28.9-13 28.9-28.9 0.1-16-12.9-28.9-28.9-28.9zM715.3 492.6c-28.8 0-52.3-23.4-52.3-52.3s23.4-52.3 52.3-52.3c28.8 0 52.3 23.4 52.3 52.3s-23.5 52.3-52.3 52.3z m0-81.2c-16 0-28.9 13-28.9 28.9s13 28.9 28.9 28.9c16 0 28.9-13 28.9-28.9s-13-28.9-28.9-28.9z" fill="#515151" p-id="28749"></path><path d="M167.6 734.1H82.7c-6.4 0-11.7-5.2-11.7-11.7s5.2-11.7 11.7-11.7h74.4l253.4-284.3h263.9c6.4 0 11.7 5.2 11.7 11.7s-5.2 11.7-11.7 11.7H420.9L167.6 734.1z" fill="#515151" p-id="28750"></path><path d="M604.2 692.7H420.7L149 486.6H82.3c-9.7 0-17.5-7.8-17.5-17.5s7.8-17.5 17.5-17.5h78.5l271.7 206.1h171.7c9.7 0 17.5 7.8 17.5 17.5s-7.8 17.5-17.5 17.5zM799.8 565.8h-348L236.1 388H83c-6.4 0-11.7-5.2-11.7-11.7 0-6.4 5.2-11.7 11.7-11.7h161.5l215.6 177.8h339.7c6.4 0 11.7 5.2 11.7 11.7 0 6.5-5.2 11.7-11.7 11.7z" fill="#515151" p-id="28751"></path><path d="M840.6 606.3c-28.8 0-52.3-23.4-52.3-52.3 0-28.8 23.4-52.3 52.3-52.3 28.8 0 52.3 23.4 52.3 52.3-0.1 28.8-23.5 52.3-52.3 52.3z m0-81.2c-16 0-28.9 13-28.9 28.9 0 16 13 28.9 28.9 28.9 16 0 28.9-13 28.9-28.9 0-16-13-28.9-28.9-28.9z" fill="#515151" p-id="28752"></path></svg>